<svg xmlns="http://www.w3.org/2000/svg" width="217" height="93" viewBox="0 0 217 93">
    <g fill="none" fill-rule="evenodd" opacity=".602">
        <path fill="#006AA0" d="M57.82 46.521c0 6.005-4.896 10.873-10.935 10.873-6.039 0-10.934-4.868-10.934-10.873 0-6.005 4.895-10.873 10.934-10.873 6.04 0 10.935 4.868 10.935 10.873"/>
        <path fill="#006AA0" d="M46.752 65.602c-10.483 0-18.98-8.45-18.98-18.875 0-10.424 8.497-18.874 18.98-18.874s18.981 8.45 18.981 18.874-8.498 18.875-18.98 18.875m-.208-47.586c-15.832 0-28.666 12.762-28.666 28.505 0 15.744 12.834 28.507 28.666 28.507S75.212 62.265 75.212 46.52c0-15.743-12.835-28.505-28.667-28.505"/>
        <path d="M0 .331h92.9v92.381H0z"/>
        <path fill="#006AA0" d="M46.867 83.186c-20.133 0-36.454-16.23-36.454-36.25s16.321-36.25 36.454-36.25 36.454 16.23 36.454 36.25S67 83.186 46.867 83.186M46.45.331C20.796.331 0 21.011 0 46.521c0 25.511 20.796 46.191 46.45 46.191 25.654 0 46.45-20.68 46.45-46.19C92.9 21.012 72.105.33 46.45.33M117.701 58.567c-1.47 0-2.821-.241-4.054-.724a9.222 9.222 0 0 1-3.188-2.055 9.446 9.446 0 0 1-2.086-3.15c-.498-1.214-.747-2.55-.747-4.012 0-1.434.249-2.759.747-3.972a9.457 9.457 0 0 1 2.086-3.151 9.246 9.246 0 0 1 3.188-2.055c1.233-.482 2.584-.723 4.054-.723 1.942 0 3.523.352 4.743 1.056 1.22.705 2.144 1.487 2.774 2.348l-3.266 3.053c-.92-1.356-2.257-2.035-4.015-2.035-1.522 0-2.761.503-3.719 1.507-.958 1.004-1.436 2.328-1.436 3.972 0 1.644.478 2.975 1.436 3.992.958 1.018 2.197 1.527 3.72 1.527.865 0 1.639-.183 2.321-.549a4.869 4.869 0 0 0 1.693-1.487l3.266 3.014c-.63.887-1.554 1.683-2.774 2.388-1.22.704-2.801 1.056-4.743 1.056"/>
        <path d="M0 92.712h216.676V.331H0z"/>
        <path fill="#006AA0" d="M126.517 58.097h4.998V31.993h-4.998zM134.506 58.097h4.999V39.194h-4.999v18.903zm2.48-20.938a2.916 2.916 0 0 1-2.106-.861c-.59-.574-.885-1.278-.885-2.113s.295-1.533.885-2.094a2.953 2.953 0 0 1 2.106-.842c.839 0 1.548.281 2.125.842.577.56.866 1.259.866 2.094s-.29 1.54-.866 2.113c-.577.574-1.286.861-2.125.861zM151.35 58.567c-1.47 0-2.82-.241-4.053-.724a9.22 9.22 0 0 1-3.188-2.055 9.44 9.44 0 0 1-2.086-3.15c-.499-1.214-.748-2.55-.748-4.012 0-1.434.25-2.759.748-3.972a9.451 9.451 0 0 1 2.086-3.151 9.243 9.243 0 0 1 3.188-2.055c1.233-.482 2.584-.723 4.054-.723 1.941 0 3.522.352 4.742 1.056 1.22.705 2.145 1.487 2.775 2.348l-3.267 3.053c-.919-1.356-2.257-2.035-4.014-2.035-1.522 0-2.762.503-3.72 1.507-.958 1.004-1.436 2.328-1.436 3.972 0 1.644.478 2.975 1.437 3.992.957 1.018 2.197 1.527 3.719 1.527.866 0 1.64-.183 2.322-.549a4.869 4.869 0 0 0 1.692-1.487l3.267 3.014c-.63.887-1.555 1.683-2.775 2.388-1.22.704-2.8 1.056-4.742 1.056M172.485 58.097l-5.037-7.28-2.283 2.427v4.853h-4.998V31.993h4.998v15.616l7.203-8.415h6.14l-7.518 8.571 7.753 10.332z"/>
        <path fill="#006AA0" d="M179.333 61.033c.21.104.466.182.768.234.301.052.57.079.807.079.655 0 1.2-.098 1.633-.294.433-.195.767-.554 1.003-1.076l.709-1.605-7.714-19.177h5.353l4.958 13.15 4.96-13.15h5.391l-8.933 21.995c-.709 1.774-1.68 2.975-2.913 3.601-1.234.626-2.664.952-4.29.978-.289 0-.696-.026-1.22-.078a9.238 9.238 0 0 1-1.26-.196l.748-4.461zM197.91 58.528c-.866 0-1.614-.313-2.243-.94-.63-.626-.945-1.37-.945-2.23 0-.861.315-1.605.945-2.231.63-.626 1.377-.94 2.243-.94.866 0 1.614.314 2.243.94.63.626.945 1.37.945 2.23 0 .862-.315 1.605-.945 2.232-.63.626-1.377.939-2.243.939M204.185 34.24h-2.491v-.87h5.974v.87h-2.503v6.962h-.98zM215.697 34.686l-2.68 6.516h-.402l-2.668-6.516v6.516h-.98v-7.831h1.405l2.444 5.964 2.456-5.964h1.404v7.831h-.98z"/>
    </g>
</svg>
