<svg xmlns="http://www.w3.org/2000/svg" width="44" height="45" viewBox="0 0 44 45">
    <path fill="#FFF" fill-rule="nonzero" d="M42.465 38.225l-10.368-8.824c-1.073-.965-2.22-1.408-3.145-1.366a16.368 16.368 0 0 0 3.926-10.659c0-9.07-7.35-16.425-16.415-16.425S.048 8.306.048 17.376c0 9.071 7.35 16.426 16.415 16.426 4.065 0 7.785-1.48 10.652-3.929-.043.927.4 2.074 1.365 3.147l8.819 10.375c1.51 1.678 3.976 1.82 5.481.315 1.505-1.505 1.364-3.973-.315-5.485zm-26-9.897c-6.044 0-10.944-4.903-10.944-10.95s4.9-10.95 10.943-10.95c6.044 0 10.943 4.903 10.943 10.95s-4.9 10.95-10.943 10.95z"/>
</svg>
